<svg width="56" height="56" viewBox="0 0 56 56" fill="none" xmlns="http://www.w3.org/2000/svg">
<path fill-rule="evenodd" clip-rule="evenodd" d="M2.5 41.499H45.499V6.5H2.5V41.499Z" fill="white"/>
<path fill-rule="evenodd" clip-rule="evenodd" d="M9 34H42V27H9V34Z" fill="#9C7BFE"/>
<path fill-rule="evenodd" clip-rule="evenodd" d="M3 9H45V7H3V9Z" fill="#D9DFFE"/>
<path fill-rule="evenodd" clip-rule="evenodd" d="M3 9H45V7H3V9ZM45 41H41V35.5C41 35.224 40.776 35 40.5 35H31.5C31.224 35 31 35.224 31 35.5V41H29V35.5C29 35.224 28.776 35 28.5 35H19.5C19.224 35 19 35.224 19 35.5V41H17V35.5C17 35.224 16.776 35 16.5 35H7.5C7.224 35 7 35.224 7 35.5V41H3V10H45V41ZM32 41H40V36H32V41ZM20 41H28V36H20V41ZM8 41H16V36H8V41ZM45.5 6H2.5C2.224 6 2 6.224 2 6.5V41.5C2 41.776 2.224 42 2.5 42H45.5C45.776 42 46 41.776 46 41.5V6.5C46 6.224 45.776 6 45.5 6Z" fill="#1F204B"/>
<path fill-rule="evenodd" clip-rule="evenodd" d="M8 22H22V13H8V22ZM7.5 23H22.5C22.776 23 23 22.776 23 22.5V12.5C23 12.224 22.776 12 22.5 12H7.5C7.224 12 7 12.224 7 12.5V22.5C7 22.776 7.224 23 7.5 23Z" fill="#1F204B"/>
<path fill-rule="evenodd" clip-rule="evenodd" d="M26 22H40V13H26V22ZM25.5 23H40.5C40.776 23 41 22.776 41 22.5V12.5C41 12.224 40.776 12 40.5 12H25.5C25.224 12 25 12.224 25 12.5V22.5C25 22.776 25.224 23 25.5 23Z" fill="#1F204B"/>
<path fill-rule="evenodd" clip-rule="evenodd" d="M8 32H40V26H8V32ZM7.5 33H40.5C40.776 33 41 32.776 41 32.5V25.5C41 25.224 40.776 25 40.5 25H7.5C7.224 25 7 25.224 7 25.5V32.5C7 32.776 7.224 33 7.5 33Z" fill="#1F204B"/>
<path fill-rule="evenodd" clip-rule="evenodd" d="M54.5 41.5C54.5 46.471 50.471 50.5 45.5 50.5C40.529 50.5 36.5 46.471 36.5 41.5C36.5 36.529 40.529 32.5 45.5 32.5C50.471 32.5 54.5 36.529 54.5 41.5Z" fill="white"/>
<path fill-rule="evenodd" clip-rule="evenodd" d="M45.5 50C40.813 50 37 46.187 37 41.5C37 36.813 40.813 33 45.5 33C50.187 33 54 36.813 54 41.5C54 46.187 50.187 50 45.5 50ZM45.5 32C40.262 32 36 36.262 36 41.5C36 46.738 40.262 51 45.5 51C50.738 51 55 46.738 55 41.5C55 36.262 50.738 32 45.5 32Z" fill="#1F204B"/>
<path fill-rule="evenodd" clip-rule="evenodd" d="M48.593 38.408C48.398 38.213 48.081 38.213 47.886 38.408L45.5 40.794L43.114 38.408C42.919 38.213 42.603 38.213 42.407 38.408C42.212 38.603 42.212 38.92 42.407 39.115L44.793 41.501L42.407 43.887C42.212 44.082 42.212 44.398 42.407 44.594C42.505 44.691 42.633 44.74 42.761 44.74C42.889 44.74 43.017 44.691 43.114 44.594L45.5 42.208L47.886 44.594C47.984 44.691 48.112 44.74 48.239 44.74C48.367 44.74 48.495 44.691 48.593 44.594C48.788 44.398 48.788 44.082 48.593 43.887L46.207 41.501L48.593 39.115C48.788 38.92 48.788 38.603 48.593 38.408Z" fill="#1F204B"/>
</svg>
