<svg xmlns="http://www.w3.org/2000/svg" xmlns:xlink="http://www.w3.org/1999/xlink" width="321" height="491"><defs><linearGradient id="c" x1="39.873%" x2="39.873%" y1="4.444%" y2="116.503%"><stop offset="0%" stop-color="#2B2A46"/><stop offset="100%" stop-color="#7880D7"/></linearGradient><linearGradient id="d" x1="39.873%" x2="39.873%" y1="4.444%" y2="116.503%"><stop offset="0%" stop-color="#2B2A46"/><stop offset="100%" stop-color="#7880D7"/></linearGradient><linearGradient id="e" x1="51.965%" x2="38.024%" y1="56.865%" y2="38%"><stop offset="0%" stop-color="#2C2B47"/><stop offset="100%" stop-color="#7880D7"/></linearGradient><path id="a" d="M.116.435h320v490h-320z"/></defs><g fill="none" fill-rule="evenodd"><mask id="b" fill="#fff"><use xlink:href="#a"/></mask><g mask="url(#b)" opacity=".17"><path fill="url(#c)" d="M259.507 284.801c27.457-5.254 51.096-31.041 78.748-27.312 18.217 2.457 32.535 17.21 48.065 27.785 15.36 10.46 32.879 17.186 50.905 19.543 8.686 1.137 17.585 1.26 26.105-.918 30.709-7.854 52.843-44.111 84.367-43.267-.531 16.814-1.059 33.63-1.59 50.443-.143 4.519-.297 9.117-1.657 13.394-1.564 4.927-4.638 9.134-8.02 12.847-17.496 19.208-43.545 26.734-68.435 26.795-24.893.061-49.32-6.463-73.765-11.499a627.368 627.368 0 0 0-74.357-10.724c-11.068-.923-22.425-1.52-33.067 1.93-10.667 3.458-19.86 10.73-29.48 16.81-43.204 27.312-98.666 30.403-144.14 8.035-3.92-1.93-7.928-4.179-10.41-7.988-2.21-3.391-2.95-7.634-3.411-11.758-3.196-28.69 5.195-58.695 22.56-80.685 15.35-19.44 40.1-41.547 58.048-17.271 18.607 25.17 49.165 39.653 79.534 33.84" transform="translate(-150.58 -.293)"/><path fill="url(#d)" d="M235.664 420.446c16.443-1.76 33.022.96 49.491 2.489 64.36 5.982 131.13-6.853 185.631-35.682 11.995-6.345 23.952-13.618 38.025-15.52 21.245-2.87 42.496 7.623 55.196 21.86 12.7 14.24 18.544 31.715 24.079 48.772-9.55 1.025-16.232-7.115-21.548-13.694-14.28-17.673-38.507-31.948-64.234-29.664-11.364 1.007-21.943 5.106-32.195 9.265-36.982 15.004-74.272 31.906-115.323 35.057-34.062 2.614-68.159-4.505-102.356-3.93-5.753.097-11.608.43-16.984 2.118-7.84 2.46-14.248 7.668-22.415 9.25-15.066 2.918-18.491-7.759-11.403-15.808 7.57-8.596 21.65-13.187 34.036-14.513" transform="translate(-215.97 21.742)"/><path fill="url(#e)" d="M88.748 334.075c8.29-13.298 23.558-24.93 38.856-36.132 54.37-39.807 112.63-77.808 174.33-113.705 38.406-22.348 79.413-44.926 100.486-73.833 21.073-28.908 14.73-66.311-28.504-79.94-2.966-.937-6.113-1.758-9.55-1.972-7.813-.49-15.701 2.176-22.49 5.068-52.58 22.395-76.144 61.058-98.847 96.492-19.16 29.907-40.15 59.499-62.912 88.684-19.03 24.401-45.077 51.506-88.05 58.463-24.678 3.994-58.421 3.584-66.61 18.101-4.4 7.805 2.55 15.436 9.28 21.941 15.807 15.282 29.85 34.539 50.784 47.192-3.454-9.167-4.396-21.001 3.227-30.359" transform="rotate(-138 176.266 190.855)"/></g></g></svg>